<svg width="1200" height="800" viewBox="0 0 1200 800" fill="none" xmlns="http://www.w3.org/2000/svg">
  <rect width="1200" height="800" rx="40" fill="#0A0F1F"/>
  <rect x="50" y="50" width="1100" height="700" rx="28" fill="url(#paint0_linear)" fill-opacity="0.18" stroke="#3B82F6" stroke-opacity="0.35"/>
  <rect x="110" y="120" width="260" height="520" rx="20" fill="#111827"/>
  <rect x="410" y="120" width="640" height="120" rx="20" fill="#111827"/>
  <rect x="410" y="270" width="300" height="170" rx="20" fill="#1D4ED8" fill-opacity="0.7"/>
  <rect x="750" y="270" width="300" height="170" rx="20" fill="#7C3AED" fill-opacity="0.7"/>
  <rect x="410" y="470" width="640" height="170" rx="20" fill="#111827"/>
  <circle cx="170" cy="190" r="28" fill="#60A5FA"/>
  <rect x="220" y="174" width="100" height="18" rx="9" fill="#E5E7EB" fill-opacity="0.85"/>
  <rect x="140" y="260" width="200" height="14" rx="7" fill="#374151"/>
  <rect x="140" y="290" width="170" height="14" rx="7" fill="#374151"/>
  <rect x="140" y="360" width="200" height="14" rx="7" fill="#374151"/>
  <rect x="140" y="390" width="160" height="14" rx="7" fill="#374151"/>
  <defs>
    <linearGradient id="paint0_linear" x1="50" y1="50" x2="1150" y2="750" gradientUnits="userSpaceOnUse">
      <stop stop-color="#3B82F6"/>
      <stop offset="1" stop-color="#8B5CF6"/>
    </linearGradient>
  </defs>
</svg>
